<svg width="24" height="24" viewBox="0 0 24 24" fill="none" xmlns="http://www.w3.org/2000/svg">
<path d="M12.4111 19.7614L12.825 20.0419L12.4111 19.7614ZM11.5889 19.7614L11.175 20.0419H11.175L11.5889 19.7614ZM16.5 8.54545C16.5 9.86086 16.4986 10.8995 15.9549 12.4408C15.403 14.0052 14.2848 16.1041 11.9971 19.481L12.825 20.0419C15.1262 16.645 16.3025 14.4611 16.8979 12.7735C17.5014 11.0629 17.5 9.88044 17.5 8.54545H16.5ZM12 4.5C14.5312 4.5 16.5 6.35499 16.5 8.54545H17.5C17.5 5.71515 14.9917 3.5 12 3.5V4.5ZM7.5 8.54545C7.5 6.35499 9.46881 4.5 12 4.5V3.5C9.00835 3.5 6.5 5.71515 6.5 8.54545H7.5ZM12.0029 19.481C9.71516 16.1041 8.59702 14.0052 8.04514 12.4408C7.50137 10.8995 7.5 9.86086 7.5 8.54545H6.5C6.5 9.88044 6.49863 11.0629 7.1021 12.7735C7.69745 14.4611 8.87378 16.645 11.175 20.0419L12.0029 19.481ZM11.9971 19.481C11.9963 19.4822 11.9962 19.482 11.997 19.4813C11.9978 19.4807 11.9987 19.4801 11.9995 19.4796C12.001 19.4789 12.0012 19.4792 12 19.4792C11.9988 19.4792 11.999 19.4789 12.0005 19.4796C12.0013 19.4801 12.0022 19.4807 12.003 19.4813C12.0038 19.482 12.0037 19.4822 12.0029 19.481L11.175 20.0419C11.57 20.6249 12.43 20.6249 12.825 20.0419L11.9971 19.481ZM13.7727 9C13.7727 9.97905 12.9791 10.7727 12 10.7727V11.7727C13.5313 11.7727 14.7727 10.5313 14.7727 9H13.7727ZM12 7.22727C12.9791 7.22727 13.7727 8.02095 13.7727 9H14.7727C14.7727 7.46867 13.5313 6.22727 12 6.22727V7.22727ZM10.2273 9C10.2273 8.02095 11.0209 7.22727 12 7.22727V6.22727C10.4687 6.22727 9.22727 7.46867 9.22727 9H10.2273ZM12 10.7727C11.0209 10.7727 10.2273 9.97905 10.2273 9H9.22727C9.22727 10.5313 10.4687 11.7727 12 11.7727V10.7727Z" fill="white"/>
</svg>
