<svg width="60" height="79" viewBox="0 0 60 79" fill="none" xmlns="http://www.w3.org/2000/svg">
<path fill-rule="evenodd" clip-rule="evenodd" d="M31.6442 74.0561C50 45.3404 54 37.7443 54 26.5086C54 15.8665 46 3 30 3C14 3 6 15.8665 6 26.5086C6 37.7443 10 45.3404 28.3558 74.0561C29.1425 75.2869 30.8575 75.2869 31.6442 74.0561Z" fill="#111111"/>
<path fill-rule="evenodd" clip-rule="evenodd" d="M54 26.5086C54 37.7443 50 45.3404 31.6442 74.0561C30.8575 75.2869 29.1425 75.2869 28.3558 74.0561C10 45.3404 6 37.7443 6 26.5086C6 15.8665 14 3 30 3C46 3 54 15.8665 54 26.5086Z" fill="#111111"/>
<path fill-rule="evenodd" clip-rule="evenodd" d="M31.6442 74.0561C50 45.3404 54 37.7443 54 26.5086C54 15.8665 46 3 30 3C14 3 6 15.8665 6 26.5086C6 37.7443 10 45.3404 28.3558 74.0561C29.1425 75.2869 30.8575 75.2869 31.6442 74.0561Z" stroke="#333333"/>
<path fill-rule="evenodd" clip-rule="evenodd" d="M54 26.5086C54 37.7443 50 45.3404 31.6442 74.0561C30.8575 75.2869 29.1425 75.2869 28.3558 74.0561C10 45.3404 6 37.7443 6 26.5086C6 15.8665 14 3 30 3C46 3 54 15.8665 54 26.5086Z" stroke="#333333"/>
<path d="M22.7539 23.1758V23.2344H26.0352V23.1758C26.0352 21.6172 27.2422 20.4688 28.8828 20.4688C30.4531 20.4688 31.5664 21.4766 31.5664 22.7422C31.5664 23.9141 31.0391 24.7695 29.3281 26.4805L22.9531 32.6211V35H35.2461V32.1875H27.6172V32.1172L31.7422 28.1445C33.6055 26.293 35.0117 24.7109 35.0117 22.6016C35.0117 19.7773 32.5625 17.7148 29 17.7148C25.3086 17.7148 22.7539 19.9766 22.7539 23.1758Z" fill="#EEEEEE"/>
</svg>
