<svg width="60" height="79" viewBox="0 0 60 79" fill="none" xmlns="http://www.w3.org/2000/svg">
<path fill-rule="evenodd" clip-rule="evenodd" d="M31.6442 74.0561C50 45.3404 54 37.7443 54 26.5086C54 15.8665 46 3 30 3C14 3 6 15.8665 6 26.5086C6 37.7443 10 45.3404 28.3558 74.0561C29.1425 75.2869 30.8575 75.2869 31.6442 74.0561Z" fill="#111111"/>
<path fill-rule="evenodd" clip-rule="evenodd" d="M54 26.5086C54 37.7443 50 45.3404 31.6442 74.0561C30.8575 75.2869 29.1425 75.2869 28.3558 74.0561C10 45.3404 6 37.7443 6 26.5086C6 15.8665 14 3 30 3C46 3 54 15.8665 54 26.5086Z" fill="#111111"/>
<path fill-rule="evenodd" clip-rule="evenodd" d="M31.6442 74.0561C50 45.3404 54 37.7443 54 26.5086C54 15.8665 46 3 30 3C14 3 6 15.8665 6 26.5086C6 37.7443 10 45.3404 28.3558 74.0561C29.1425 75.2869 30.8575 75.2869 31.6442 74.0561Z" stroke="#333333"/>
<path fill-rule="evenodd" clip-rule="evenodd" d="M54 26.5086C54 37.7443 50 45.3404 31.6442 74.0561C30.8575 75.2869 29.1425 75.2869 28.3558 74.0561C10 45.3404 6 37.7443 6 26.5086C6 15.8665 14 3 30 3C46 3 54 15.8665 54 26.5086Z" stroke="#333333"/>
<path d="M26.75 27.6172H28.8359C30.7461 27.6172 31.9062 28.5547 31.9062 30.1016C31.9062 31.5312 30.6641 32.5273 28.8945 32.5273C27.0312 32.5273 25.8594 31.5898 25.7539 30.1602H22.3672C22.5312 33.2773 25.0273 35.375 28.8477 35.375C32.75 35.375 35.5039 33.3594 35.5039 30.3242C35.5039 27.9805 33.875 26.457 31.3555 26.2461V26.1758C33.4297 25.8008 34.8477 24.3008 34.8477 22.2266C34.8477 19.5195 32.4453 17.7148 28.9297 17.7148C25.2617 17.7148 22.8242 19.7539 22.6953 22.8828H25.9531C26.0469 21.4062 27.1367 20.4336 28.7773 20.4336C30.5352 20.4336 31.5078 21.3359 31.5078 22.707C31.5078 24.1016 30.418 25.0625 28.8008 25.0625H26.75V27.6172Z" fill="#EEEEEE"/>
</svg>
