<svg width="60" height="79" viewBox="0 0 60 79" fill="none" xmlns="http://www.w3.org/2000/svg">
<path fill-rule="evenodd" clip-rule="evenodd" d="M31.6442 74.0561C50 45.3404 54 37.7443 54 26.5086C54 15.8665 46 3 30 3C14 3 6 15.8665 6 26.5086C6 37.7443 10 45.3404 28.3558 74.0561C29.1425 75.2869 30.8575 75.2869 31.6442 74.0561Z" fill="#111111"/>
<path fill-rule="evenodd" clip-rule="evenodd" d="M54 26.5086C54 37.7443 50 45.3404 31.6442 74.0561C30.8575 75.2869 29.1425 75.2869 28.3558 74.0561C10 45.3404 6 37.7443 6 26.5086C6 15.8665 14 3 30 3C46 3 54 15.8665 54 26.5086Z" fill="#111111"/>
<path fill-rule="evenodd" clip-rule="evenodd" d="M31.6442 74.0561C50 45.3404 54 37.7443 54 26.5086C54 15.8665 46 3 30 3C14 3 6 15.8665 6 26.5086C6 37.7443 10 45.3404 28.3558 74.0561C29.1425 75.2869 30.8575 75.2869 31.6442 74.0561Z" stroke="#333333"/>
<path fill-rule="evenodd" clip-rule="evenodd" d="M54 26.5086C54 37.7443 50 45.3404 31.6442 74.0561C30.8575 75.2869 29.1425 75.2869 28.3558 74.0561C10 45.3404 6 37.7443 6 26.5086C6 15.8665 14 3 30 3C46 3 54 15.8665 54 26.5086Z" stroke="#333333"/>
<path d="M28.6602 35H32.1641V18.0898H28.6484L24.2773 21.125V24.3125L28.5898 21.3359H28.6602V35Z" fill="#EEEEEE"/>
</svg>
