<svg width="25" height="11" viewBox="0 0 25 11" fill="none" xmlns="http://www.w3.org/2000/svg">
<g id="Battery">
<path id="Rectangle 3" opacity="0.4" d="M0.5 2.5C0.5 1.39543 1.39543 0.5 2.5 0.5H19.5C20.6046 0.5 21.5 1.39543 21.5 2.5V8C21.5 9.10457 20.6046 10 19.5 10H18.4687H2.5C1.39543 10 0.5 9.10457 0.5 8V2.5Z" stroke="white"/>
<path id="Combined Shape" fill-rule="evenodd" clip-rule="evenodd" d="M23 7.37398C23.8626 7.15196 24.5 6.36891 24.5 5.43699C24.5 4.50507 23.8626 3.72202 23 3.5V7.37398Z" fill="white" fill-opacity="0.5"/>
<path id="Rectangle Copy 4" fill-rule="evenodd" clip-rule="evenodd" d="M2 3C2 2.44772 2.44772 2 3 2H19C19.5523 2 20 2.44772 20 3V7.5C20 8.05228 19.5523 8.5 19 8.5H3C2.44772 8.5 2 8.05228 2 7.5V3Z" fill="white"/>
</g>
</svg>
