<svg width="32" height="10" viewBox="0 0 32 10" fill="none" xmlns="http://www.w3.org/2000/svg">
<g id="Left Detail">
<g id="Signal">
<path id="Wifi" fill-rule="evenodd" clip-rule="evenodd" d="M24.9876 0.5C27.5506 0.5 29.863 1.53944 31.5 3.20688L30.4119 4.26404C29.0539 2.86553 27.126 1.99223 24.9876 1.99223C22.8629 1.99223 20.9461 2.85432 19.5896 4.23709L18.5 3.18164C20.1355 1.52896 22.4375 0.5 24.9876 0.5ZM29.3235 5.32144C28.2448 4.19175 26.7014 3.48446 24.9876 3.48446C23.2883 3.48446 21.7566 4.17976 20.6793 5.29269L21.7693 6.3486C22.5672 5.50537 23.7136 4.97668 24.9876 4.97668C26.2769 4.97668 27.4356 5.51824 28.2346 6.37933L29.3235 5.32144ZM27.1444 7.4385C26.6264 6.84545 25.8524 6.46891 24.9876 6.46891C24.139 6.46891 23.3779 6.83143 22.8602 7.40532L25.0225 9.5L27.1444 7.4385Z" fill="white"/>
<path id="Mobile Signal" fill-rule="evenodd" clip-rule="evenodd" d="M12.5 0C12.2239 0 12 0.223857 12 0.5V9C12 9.27614 12.2239 9.5 12.5 9.5H14C14.2761 9.5 14.5 9.27614 14.5 9V0.5C14.5 0.223858 14.2761 0 14 0H12.5ZM8.5 2.5C8.22386 2.5 8 2.72386 8 3V9C8 9.27614 8.22386 9.5 8.5 9.5H10C10.2761 9.5 10.5 9.27614 10.5 9V3C10.5 2.72386 10.2761 2.5 10 2.5H8.5ZM4 5C4 4.72386 4.22386 4.5 4.5 4.5H6C6.27614 4.5 6.5 4.72386 6.5 5V9C6.5 9.27614 6.27614 9.5 6 9.5H4.5C4.22386 9.5 4 9.27614 4 9V5ZM0.5 6.5C0.223858 6.5 0 6.72386 0 7V9C0 9.27614 0.223858 9.5 0.5 9.5H2C2.27614 9.5 2.5 9.27614 2.5 9V7C2.5 6.72386 2.27614 6.5 2 6.5H0.5Z" fill="white"/>
</g>
</g>
</svg>
